# xmcd
#
# Track frame offsets:
#	150
#	14457
#	28045
#	45831
#	63788
#	78185
#	92395
#	106850
#	123154
#	139227
#	156464
#	178845
#	193116
#	211003
#	225045
#	240434
#	258332
#	271351
#	287258
#	305230
#	320384
#
# Disc length: 4517 seconds
#
# Revision: 1
# Processed by: cddbd v1.5.2PL0 Copyright (c) Steve Scherf et al.
# Submitted via: audiograbber 1.83.01
#
DISCID=0911a315
DTITLE=Terri Clark - The Ultimate Collection
DYEAR=2008
DGENRE=Country
TTITLE0=Better Things To Do
TTITLE1=When Boy Meets Girl
TTITLE2=If I Were You
TTITLE3=Suddenly Single
TTITLE4=Poor, Poor Pitiful Me
TTITLE5=Emotional Girl
TTITLE6=Just The Same
TTITLE7=Now that I Found You
TTITLE8=You're Easy On The Eyes
TTITLE9=Everytime I Cry
TTITLE10=Unsung Hero
TTITLE11=A Little Gasoline
TTITLE12=No Fear
TTITLE13=Getting There
TTITLE14=I Just Wanna Be Mad
TTITLE15=Three Mississippi
TTITLE16=I Wanna Do It All
TTITLE17=Girls Lie Too
TTITLE18=The World Need A Drink
TTITLE19=She Didn't Have Time
TTITLE20=Damn Right
EXTD=
EXTT0=
EXTT1=
EXTT2=
EXTT3=
EXTT4=
EXTT5=
EXTT6=
EXTT7=
EXTT8=
EXTT9=
EXTT10=
EXTT11=
EXTT12=
EXTT13=
EXTT14=
EXTT15=
EXTT16=
EXTT17=
EXTT18=
EXTT19=
EXTT20=
PLAYORDER=
